<mxfile host="app.diagrams.net" agent="Mozilla/5.0 (X11; Linux x86_64) AppleWebKit/537.36 (KHTML, like Gecko) Chrome/133.0.0.0 Safari/537.36" version="26.0.16">
  <diagram name="ページ1" id="o7EWMI4j1uhZ4cwT0dAm">
    <mxGraphModel dx="2062" dy="2251" grid="1" gridSize="10" guides="1" tooltips="1" connect="1" arrows="1" fold="1" page="1" pageScale="1" pageWidth="827" pageHeight="1169" math="0" shadow="0">
      <root>
        <mxCell id="0" />
        <mxCell id="1" parent="0" />
        <mxCell id="GC4X4cdc21nMEcXyq9Xu-2" value="" style="rounded=0;whiteSpace=wrap;html=1;sketch=1;hachureGap=4;jiggle=2;curveFitting=1;fontFamily=Architects Daughter;fontSource=https%3A%2F%2Ffonts.googleapis.com%2Fcss%3Ffamily%3DArchitects%2BDaughter;fillColor=#005396;strokeColor=#6c8ebf;" vertex="1" parent="1">
          <mxGeometry x="80" y="-40" width="320" height="320" as="geometry" />
        </mxCell>
        <mxCell id="GC4X4cdc21nMEcXyq9Xu-5" value="" style="rounded=0;whiteSpace=wrap;html=1;sketch=1;hachureGap=4;jiggle=2;curveFitting=1;fontFamily=Architects Daughter;fontSource=https%3A%2F%2Ffonts.googleapis.com%2Fcss%3Ffamily%3DArchitects%2BDaughter;fillColor=#005396;strokeColor=#6c8ebf;" vertex="1" parent="1">
          <mxGeometry x="400" y="-40" width="320" height="320" as="geometry" />
        </mxCell>
        <mxCell id="GC4X4cdc21nMEcXyq9Xu-6" value="" style="rounded=0;whiteSpace=wrap;html=1;sketch=1;hachureGap=4;jiggle=2;curveFitting=1;fontFamily=Architects Daughter;fontSource=https%3A%2F%2Ffonts.googleapis.com%2Fcss%3Ffamily%3DArchitects%2BDaughter;fillColor=#6B1317;fontColor=#333333;strokeColor=#666666;" vertex="1" parent="1">
          <mxGeometry x="720" y="-40" width="320" height="320" as="geometry" />
        </mxCell>
        <mxCell id="GC4X4cdc21nMEcXyq9Xu-7" value="" style="rounded=0;whiteSpace=wrap;html=1;sketch=1;hachureGap=4;jiggle=2;curveFitting=1;fontFamily=Architects Daughter;fontSource=https%3A%2F%2Ffonts.googleapis.com%2Fcss%3Ffamily%3DArchitects%2BDaughter;fillColor=#6B1317;strokeColor=#6B1317;" vertex="1" parent="1">
          <mxGeometry x="1040" y="-40" width="320" height="320" as="geometry" />
        </mxCell>
        <mxCell id="GC4X4cdc21nMEcXyq9Xu-8" value="" style="rounded=0;whiteSpace=wrap;html=1;sketch=1;hachureGap=4;jiggle=2;curveFitting=1;fontFamily=Architects Daughter;fontSource=https%3A%2F%2Ffonts.googleapis.com%2Fcss%3Ffamily%3DArchitects%2BDaughter;fillColor=#7F6A12;" vertex="1" parent="1">
          <mxGeometry x="80" y="280" width="320" height="320" as="geometry" />
        </mxCell>
        <mxCell id="GC4X4cdc21nMEcXyq9Xu-9" value="" style="rounded=0;whiteSpace=wrap;html=1;sketch=1;hachureGap=4;jiggle=2;curveFitting=1;fontFamily=Architects Daughter;fontSource=https%3A%2F%2Ffonts.googleapis.com%2Fcss%3Ffamily%3DArchitects%2BDaughter;fillColor=#7F6A12;" vertex="1" parent="1">
          <mxGeometry x="400" y="280" width="320" height="320" as="geometry" />
        </mxCell>
        <mxCell id="GC4X4cdc21nMEcXyq9Xu-10" value="" style="rounded=0;whiteSpace=wrap;html=1;sketch=1;hachureGap=4;jiggle=2;curveFitting=1;fontFamily=Architects Daughter;fontSource=https%3A%2F%2Ffonts.googleapis.com%2Fcss%3Ffamily%3DArchitects%2BDaughter;fillColor=#7F6A12;" vertex="1" parent="1">
          <mxGeometry x="720" y="280" width="320" height="320" as="geometry" />
        </mxCell>
        <mxCell id="GC4X4cdc21nMEcXyq9Xu-11" value="" style="rounded=0;whiteSpace=wrap;html=1;sketch=1;hachureGap=4;jiggle=2;curveFitting=1;fontFamily=Architects Daughter;fontSource=https%3A%2F%2Ffonts.googleapis.com%2Fcss%3Ffamily%3DArchitects%2BDaughter;fillColor=none;" vertex="1" parent="1">
          <mxGeometry x="1040" y="280" width="320" height="320" as="geometry" />
        </mxCell>
        <mxCell id="GC4X4cdc21nMEcXyq9Xu-25" value="&lt;font style=&quot;font-size: 72px;&quot;&gt;r&lt;/font&gt;" style="text;html=1;align=center;verticalAlign=middle;whiteSpace=wrap;rounded=0;fontFamily=Architects Daughter;fontSource=https%3A%2F%2Ffonts.googleapis.com%2Fcss%3Ffamily%3DArchitects%2BDaughter;" vertex="1" parent="1">
          <mxGeometry x="90" y="-10" width="60" height="30" as="geometry" />
        </mxCell>
        <mxCell id="GC4X4cdc21nMEcXyq9Xu-26" value="&lt;font style=&quot;font-size: 72px;&quot;&gt;pad&lt;/font&gt;" style="text;html=1;align=center;verticalAlign=middle;whiteSpace=wrap;rounded=0;fontFamily=Architects Daughter;fontSource=https%3A%2F%2Ffonts.googleapis.com%2Fcss%3Ffamily%3DArchitects%2BDaughter;" vertex="1" parent="1">
          <mxGeometry x="760" y="-10" width="60" height="30" as="geometry" />
        </mxCell>
        <mxCell id="GC4X4cdc21nMEcXyq9Xu-27" value="&lt;font style=&quot;font-size: 72px;&quot;&gt;curr&lt;/font&gt;" style="text;html=1;align=center;verticalAlign=middle;whiteSpace=wrap;rounded=0;fontFamily=Architects Daughter;fontSource=https%3A%2F%2Ffonts.googleapis.com%2Fcss%3Ffamily%3DArchitects%2BDaughter;" vertex="1" parent="1">
          <mxGeometry x="140" y="310" width="60" height="30" as="geometry" />
        </mxCell>
        <mxCell id="GC4X4cdc21nMEcXyq9Xu-31" value="&lt;font style=&quot;font-size: 72px;&quot;&gt;0&lt;/font&gt;" style="text;strokeColor=none;align=center;fillColor=none;html=1;verticalAlign=middle;whiteSpace=wrap;rounded=0;fontFamily=Architects Daughter;fontSource=https%3A%2F%2Ffonts.googleapis.com%2Fcss%3Ffamily%3DArchitects%2BDaughter;" vertex="1" parent="1">
          <mxGeometry x="50" y="-90" width="60" height="30" as="geometry" />
        </mxCell>
        <mxCell id="GC4X4cdc21nMEcXyq9Xu-33" value="&lt;font style=&quot;font-size: 72px;&quot;&gt;8&lt;/font&gt;" style="text;strokeColor=none;align=center;fillColor=none;html=1;verticalAlign=middle;whiteSpace=wrap;rounded=0;fontFamily=Architects Daughter;fontSource=https%3A%2F%2Ffonts.googleapis.com%2Fcss%3Ffamily%3DArchitects%2BDaughter;" vertex="1" parent="1">
          <mxGeometry x="370" y="-90" width="60" height="30" as="geometry" />
        </mxCell>
        <mxCell id="GC4X4cdc21nMEcXyq9Xu-34" value="&lt;font style=&quot;font-size: 72px;&quot;&gt;16&lt;/font&gt;" style="text;strokeColor=none;align=center;fillColor=none;html=1;verticalAlign=middle;whiteSpace=wrap;rounded=0;fontFamily=Architects Daughter;fontSource=https%3A%2F%2Ffonts.googleapis.com%2Fcss%3Ffamily%3DArchitects%2BDaughter;" vertex="1" parent="1">
          <mxGeometry x="690" y="-90" width="60" height="30" as="geometry" />
        </mxCell>
        <mxCell id="GC4X4cdc21nMEcXyq9Xu-35" value="&lt;font style=&quot;font-size: 72px;&quot;&gt;24&lt;/font&gt;" style="text;strokeColor=none;align=center;fillColor=none;html=1;verticalAlign=middle;whiteSpace=wrap;rounded=0;fontFamily=Architects Daughter;fontSource=https%3A%2F%2Ffonts.googleapis.com%2Fcss%3Ffamily%3DArchitects%2BDaughter;" vertex="1" parent="1">
          <mxGeometry x="1010" y="-90" width="60" height="30" as="geometry" />
        </mxCell>
        <mxCell id="GC4X4cdc21nMEcXyq9Xu-36" value="&lt;font style=&quot;font-size: 72px;&quot;&gt;32&lt;/font&gt;" style="text;strokeColor=none;align=center;fillColor=none;html=1;verticalAlign=middle;whiteSpace=wrap;rounded=0;fontFamily=Architects Daughter;fontSource=https%3A%2F%2Ffonts.googleapis.com%2Fcss%3Ffamily%3DArchitects%2BDaughter;" vertex="1" parent="1">
          <mxGeometry x="1330" y="-90" width="60" height="30" as="geometry" />
        </mxCell>
      </root>
    </mxGraphModel>
  </diagram>
</mxfile>
